<svg width="141" height="187" viewBox="0 0 141 187" fill="none" xmlns="http://www.w3.org/2000/svg">
<path d="M40.8864 111.386L68.6111 98.4076L98.0419 111.386L70.2563 134.297L40.8864 111.386Z" fill="#333F72"/>
<path d="M114.128 56.4243V64.2238C114.128 86.1598 96.3358 103.952 74.3997 103.952H66.6003C44.6642 103.952 26.8716 86.1598 26.8716 64.2238V56.4243C26.8716 34.4883 44.6642 16.6957 66.6003 16.6957H74.3997C96.3358 16.6957 114.128 34.4883 114.128 56.4243Z" fill="#333F72"/>
<path d="M141 186.944H0L1.94988 177.194L2.0108 176.89C2.80293 173.112 3.83881 169.456 5.17934 165.922C7.19015 160.681 9.81029 155.746 12.9179 151.237C13.446 150.424 14.0147 149.632 14.624 148.86C17.0004 145.631 19.6206 142.706 22.4844 139.964C28.8824 133.993 36.3163 129.179 44.4814 125.949C44.4814 125.949 44.4814 125.929 44.4814 125.888C44.6439 125.848 44.7861 125.807 44.908 125.767C52.8903 122.598 61.5428 120.892 70.5 120.892C79.4572 120.892 88.1098 122.598 96.0311 125.767H96.0921C104.44 129.057 112.057 133.871 118.516 139.964C121.4 142.686 124.04 145.651 126.437 148.86C126.985 149.591 127.595 150.384 128.082 151.237C131.251 155.746 133.81 160.681 135.821 165.922C137.161 169.456 138.197 173.112 138.989 176.89L139.05 177.194L141 186.944Z" fill="#E56E0C"/>
<path d="M41.6784 85.3069C36.4991 89.8769 28.6387 89.3894 24.0077 84.2101C19.4377 79.0307 19.9252 71.1703 25.1046 66.6003C30.2839 61.9694 38.2053 62.4568 42.7753 67.6362" fill="#F3EDE1"/>
<path d="M41.6784 85.3069C36.4991 89.8769 28.6387 89.3894 24.0077 84.2101C19.4377 79.0307 19.9252 71.1703 25.1046 66.6003C30.2839 61.9694 38.2053 62.4568 42.7753 67.6362" stroke="#333F72" stroke-width="1.5"/>
<path d="M58.3134 141.548V98.4076H82.7477V141.548" fill="#F3EDE1"/>
<path d="M58.3134 141.548V98.4076H82.7477V141.548" stroke="#333F72" stroke-width="1.5"/>
<path d="M82.1992 101.576V112.239C77.6292 114.738 72.328 116.139 66.7221 116.139C63.9598 116.139 61.3194 115.814 58.8008 115.164V101.576H82.1992Z" fill="#F3CFBF"/>
<path d="M100.418 58.496V73.6075C100.418 82.9304 96.5795 91.3392 90.4862 97.4935C84.3928 103.648 75.9231 107.426 66.5393 107.426C52.7074 107.426 40.7644 99.0777 35.5851 87.1348C33.7571 82.9913 32.7213 78.4213 32.7213 73.6075V58.496C32.7213 51.0012 35.1586 43.9939 39.363 38.388C40.7035 36.56 42.2878 34.8539 43.9939 33.3305C49.9654 27.9684 57.8868 24.678 66.5393 24.678C85.2459 24.678 100.418 39.8504 100.418 58.496Z" fill="#F3EDE1" stroke="#333F72" stroke-width="1.5"/>
<path d="M90.9127 77.4466C90.9127 81.9557 87.2567 85.6117 82.7476 85.6117C78.1776 85.6117 74.5216 81.9557 74.5216 77.4466C74.5216 72.8766 78.1776 69.2206 82.7476 69.2206C87.2567 69.2206 90.9127 72.8766 90.9127 77.4466Z" fill="#F3CFBF"/>
<path d="M52.22 77.4466C52.22 81.9557 48.5639 85.6117 44.0549 85.6117C39.5458 85.6117 35.8898 81.9557 35.8898 77.4466C35.8898 72.8766 39.5458 69.2206 44.0549 69.2206C48.5639 69.2206 52.22 72.8766 52.22 77.4466Z" fill="#F3CFBF"/>
<path d="M80.615 69.2204C80.615 70.9265 79.2744 72.267 77.5683 72.267C75.9231 72.267 74.5216 70.9265 74.5216 69.2204C74.5216 67.5752 75.9231 66.2346 77.5683 66.2346C79.2744 66.2346 80.615 67.5752 80.615 69.2204Z" fill="#333F72"/>
<path d="M51.306 69.2204C51.306 70.9265 49.9655 72.267 48.2593 72.267C46.6141 72.267 45.2126 70.9265 45.2126 69.2204C45.2126 67.5752 46.6141 66.2346 48.2593 66.2346C49.9655 66.2346 51.306 67.5752 51.306 69.2204Z" fill="#333F72"/>
<path d="M64.3457 83.0523H56.5463L66.5394 24.8608" fill="#F3EDE1"/>
<path d="M64.3457 83.0523H56.5463L66.5394 24.8608" stroke="#333F72" stroke-width="1.5"/>
<path d="M58.2524 89.8768C63.6145 95.178 68.6111 89.8768 68.6111 89.8768" stroke="#333F72" stroke-width="1.5"/>
<path d="M40.8864 58.3743C40.8864 58.3743 42.5315 54.5355 46.5532 53.6215C49.2952 53.0121 52.22 54.2917 52.22 58.3743H40.8864Z" fill="#333F72"/>
<path d="M73.9122 58.3743C73.9122 54.2917 76.837 53.0121 79.579 53.6215C83.6006 54.5355 85.1849 58.3743 85.1849 58.3743H73.9122Z" fill="#333F72"/>
<path d="M96.0921 67.6362C100.662 62.4568 108.583 61.9694 113.763 66.6003C118.942 71.1703 119.43 79.0307 114.799 84.2101C110.229 89.3894 102.368 89.8769 97.1889 85.3069" fill="#F3EDE1"/>
<path d="M96.0921 67.6362C100.662 62.4568 108.583 61.9694 113.763 66.6003C118.942 71.1703 119.43 79.0307 114.799 84.2101C110.229 89.3894 102.368 89.8769 97.1889 85.3069" stroke="#333F72" stroke-width="1.5"/>
<path d="M103.16 78.787L109.619 72.5718" stroke="#333F72" stroke-width="1.5"/>
<path d="M51.3059 40.2161C20.9001 40.2161 23.3984 0 53.8042 0C79.579 0 82.1992 24.7999 110.716 14.2584C110.716 14.2584 107.487 40.2161 80.6149 40.2161H51.3059Z" fill="#333F72"/>
<path d="M51.306 142.828L40.8864 111.386L62.4568 124.609L66.5394 145.57L51.306 142.828Z" fill="#E56E0C"/>
<path d="M72.3889 145.57L76.4715 124.609L98.0419 111.386L87.6223 142.828L72.3889 145.57Z" fill="#E56E0C"/>
<path d="M69.8907 152.151C66.4175 152.151 66.4175 157.513 69.8907 157.513C73.3029 157.513 73.3029 152.151 69.8907 152.151Z" fill="#F3EDE1"/>
<path d="M69.8907 168.908C66.4175 168.908 66.4175 174.209 69.8907 174.209C73.3029 174.209 73.3029 168.908 69.8907 168.908Z" fill="#F3EDE1"/>
<path d="M93.5938 124.853L87.6223 142.828" stroke="#F3EDE1" stroke-width="2"/>
<path d="M44.908 125.767L51.306 142.828" stroke="#F3EDE1" stroke-width="2"/>
</svg>
