<?xml version="1.0" encoding="UTF-8"?>
<svg version="1.1" xmlns="http://www.w3.org/2000/svg" width="512" height="512">
<path d="M0 0 C1.24179016 -0.01283524 2.48358032 -0.02567047 3.76300049 -0.03889465 C5.12552492 -0.04706322 6.48805386 -0.05450673 7.85058594 -0.0612793 C8.8791785 -0.06739259 8.8791785 -0.06739259 9.92855072 -0.07362938 C13.55994872 -0.09449287 17.19130893 -0.1087918 20.82275391 -0.11816406 C24.56652411 -0.12921301 28.30969739 -0.16359356 32.05325699 -0.20333576 C34.9375516 -0.22953684 37.82170495 -0.23785906 40.70610809 -0.24144554 C42.08556894 -0.24630468 43.46502376 -0.25789966 44.84436798 -0.27648354 C58.20897313 -0.44531246 58.20897313 -0.44531246 63.08496094 4.17700195 C66.43704991 8.02184106 66.21461748 11.08743175 65.98974609 15.91259766 C65.49764369 29.98698682 71.28128822 38.88127418 79.04736328 50.16967773 C82.53628334 55.31903279 85.75737514 60.63413038 89.02246094 65.92700195 C90.21685158 67.83985072 91.41338912 69.75136101 92.61230469 71.66137695 C93.14618144 72.53140256 93.68005819 73.40142817 94.23011303 74.29781818 C95.999671 77.14514566 95.999671 77.14514566 97.92516804 79.51011181 C104.18128948 87.82787427 104.06382969 95.65575538 103.94311523 105.57861328 C103.94769692 107.31433114 103.95530351 109.05004322 103.96568298 110.78573608 C103.98467314 115.46965137 103.96018183 120.15240024 103.92644477 124.83619523 C103.89742649 129.74875456 103.9051972 134.66127311 103.90791321 139.57389832 C103.90692541 147.81606232 103.87857786 156.05777463 103.83276367 164.29980469 C103.78006522 173.8232028 103.76610057 183.34603958 103.77379674 192.86956769 C103.78071392 202.04640505 103.76485278 211.22305295 103.73703957 220.39984703 C103.72534755 224.29964235 103.72079213 228.19934915 103.721838 232.09916115 C103.72171205 236.68850344 103.70136539 241.27733019 103.66544533 245.86652756 C103.65537363 247.54911183 103.65204462 249.23175216 103.6559906 250.91436195 C103.66020499 253.21342569 103.63975911 255.51100716 103.61308289 257.80989075 C103.60767833 259.09533185 103.60227377 260.38077295 103.59670544 261.70516682 C102.99125806 265.81271168 101.67617439 267.96784153 99.08496094 271.17700195 C91.70677655 276.02494478 82.22830208 274.41648377 73.75488281 274.08911133 C66.63461515 273.97293758 66.63461515 273.97293758 60.58862305 277.25683594 C58.5662951 279.80917964 56.81817559 282.4225832 55.08496094 285.17700195 C44.61912688 297.63321798 31.23471814 306.55636253 17.27246094 314.61450195 C16.41338135 315.11079102 15.55430176 315.60708008 14.66918945 316.1184082 C-0.22711076 324.49891873 -0.22711076 324.49891873 -5.47949219 323.86987305 C-21.02665478 319.44697335 -35.66443504 309.33708561 -48.41503906 299.67700195 C-48.97352539 299.25563965 -49.53201172 298.83427734 -50.10742188 298.40014648 C-51.41805547 297.37671187 -52.67312412 296.28281663 -53.91503906 295.17700195 C-53.91503906 294.51700195 -53.91503906 293.85700195 -53.91503906 293.17700195 C-54.47320312 292.95399414 -55.03136719 292.73098633 -55.60644531 292.5012207 C-62.79577775 288.37739042 -68.36523481 280.00170833 -72.91503906 273.17700195 C-73.55441406 273.34200195 -74.19378906 273.50700195 -74.85253906 273.67700195 C-80.41175361 274.58462882 -85.65935983 274.65777882 -91.10253906 273.11450195 C-95.10872217 272.12937496 -96.95072119 272.321953 -100.91503906 273.17700195 C-109.02418094 274.18770548 -117.09971522 274.33048751 -125.26171875 274.33813477 C-127.19309944 274.34558212 -127.19309944 274.34558212 -129.16349792 274.35317993 C-132.66113844 274.36616451 -136.15875992 274.37271942 -139.65642071 274.37719059 C-141.84639166 274.38013972 -144.0363576 274.38424746 -146.22632599 274.38869476 C-153.09325308 274.40232327 -159.96016848 274.41201659 -166.82710814 274.41589665 C-174.72873355 274.42038784 -182.63018689 274.43800412 -190.53175998 274.46689725 C-196.66198029 274.48853001 -202.79215218 274.49860153 -208.92241025 274.49993777 C-212.57503753 274.50098322 -216.227502 274.50683728 -219.88008881 274.52475739 C-223.94881151 274.54433793 -228.01717285 274.53994283 -232.0859375 274.53344727 C-233.2871373 274.54266205 -234.4883371 274.55187683 -235.72593689 274.56137085 C-242.76869407 274.52612472 -248.32938435 274.25552223 -253.87597656 269.4934082 C-254.34261719 268.91461914 -254.80925781 268.33583008 -255.29003906 267.73950195 C-255.77214844 267.16329102 -256.25425781 266.58708008 -256.75097656 265.9934082 C-258.74055659 262.88886219 -259.03964722 259.79715861 -259.04634094 256.16775513 C-259.05034912 255.37999695 -259.0543573 254.59223877 -259.05848694 253.78060913 C-259.05795822 252.92544708 -259.0574295 252.07028503 -259.05688477 251.18920898 C-259.06035919 250.281427 -259.06383362 249.37364502 -259.06741333 248.43835449 C-259.07476 246.46859473 -259.08011118 244.49882674 -259.08370399 242.52905655 C-259.09087701 239.41016189 -259.10654937 236.29142385 -259.12504578 233.1725769 C-259.17748024 224.30542121 -259.22550169 215.43835238 -259.2409668 206.57104492 C-259.25104908 201.1457192 -259.28037775 195.7207893 -259.32228661 190.29561996 C-259.3345955 188.22962309 -259.33971807 186.16357033 -259.33748817 184.09753799 C-259.33513475 181.20579021 -259.3573043 178.31517823 -259.38500977 175.42358398 C-259.37840836 174.5724704 -259.37180695 173.72135681 -259.36500549 172.8444519 C-259.44948346 167.46856898 -260.41842582 164.48553158 -263.91503906 160.17700195 C-264.43066406 159.53375977 -264.94628906 158.89051758 -265.47753906 158.2277832 C-265.95191406 157.65415039 -266.42628906 157.08051758 -266.91503906 156.48950195 C-272.08920292 149.62125906 -274.86754861 141.74958789 -273.91503906 133.17700195 C-271.60522123 121.28430355 -264.16445802 112.85892996 -254.51660156 105.84887695 C-243.45171245 98.73810737 -231.66139078 94.21563327 -218.91503906 91.17700195 C-217.635 90.85731445 -216.35496094 90.53762695 -215.03613281 90.20825195 C-188.16766436 84.27881786 -157.63714129 86.95899536 -131.91503906 96.17700195 C-130.85800781 96.54567383 -129.80097656 96.9143457 -128.71191406 97.29418945 C-117.10296123 101.70072914 -104.4169498 109.2701447 -98.64550781 120.6887207 C-96.77510938 125.1102633 -95.4203874 129.37619272 -94.91503906 134.17700195 C-94.44453125 133.62270508 -93.97402344 133.0684082 -93.48925781 132.49731445 C-92.86664063 131.77286133 -92.24402344 131.0484082 -91.60253906 130.30200195 C-90.98765625 129.58270508 -90.37277344 128.8634082 -89.73925781 128.12231445 C-87.42138611 125.65057974 -85.77991607 124.2613802 -82.35253906 123.92700195 C-79.91503906 124.17700195 -79.91503906 124.17700195 -77.91503906 126.17700195 C-77.85253906 128.92700195 -77.85253906 128.92700195 -78.91503906 132.17700195 C-80.40722656 133.62231445 -80.40722656 133.62231445 -82.22753906 135.05200195 C-89.11811945 140.50233808 -90.61027637 147.79905203 -91.91503906 156.17700195 C-91.25761719 155.96043945 -90.60019531 155.74387695 -89.92285156 155.52075195 C-83.51471179 153.64519885 -77.43379776 152.82854919 -70.79003906 152.73950195 C-70.06316895 152.71758789 -69.33629883 152.69567383 -68.58740234 152.6730957 C-64.15752834 152.68896983 -60.73381243 153.49757064 -56.63427734 155.20800781 C-55.74668732 155.57478134 -54.85909729 155.94155487 -53.9446106 156.31944275 C-53.27485199 156.60243729 -52.60509338 156.88543182 -51.91503906 157.17700195 C-51.92915833 156.35697693 -51.94327759 155.5369519 -51.95782471 154.69207764 C-52.08153702 146.86872727 -52.14522371 139.04804711 -52.1456337 131.22379684 C-52.14785072 127.20332541 -52.17127189 123.18557381 -52.24755859 119.16577148 C-52.58590621 100.45861384 -52.51509866 85.37319054 -40.35839844 70.0279541 C-38.42394911 67.54723225 -36.84150075 64.90322511 -35.25097656 62.19262695 C-34.26429654 60.60389946 -33.27732838 59.01535088 -32.29003906 57.42700195 C-31.75862305 56.55833496 -31.22720703 55.68966797 -30.6796875 54.79467773 C-28.20085197 50.75896734 -25.68838903 46.80094788 -22.90722656 42.96606445 C-16.58462442 34.06397225 -14.82670881 27.39478464 -15.07519531 16.4543457 C-15.10495464 11.01749821 -13.45191381 6.94673652 -9.85253906 2.80200195 C-6.49636621 -0.01285269 -4.32389553 0.03881396 0 0 Z M-101.91503906 148.17700195 C-102.96867846 149.48456553 -103.9835754 150.82351952 -104.97753906 152.17700195 C-105.52539062 152.91950195 -106.07324219 153.66200195 -106.63769531 154.42700195 C-107.26998047 155.29325195 -107.26998047 155.29325195 -107.91503906 156.17700195 C-105.2676499 157.63763046 -104.02055572 158.17700195 -100.91503906 158.17700195 C-100.91503906 154.87700195 -100.91503906 151.57700195 -100.91503906 148.17700195 C-101.24503906 148.17700195 -101.57503906 148.17700195 -101.91503906 148.17700195 Z " fill="#020202" transform="translate(332.9150390625,40.822998046875)"/>
<path d="M0 0 C1.87656077 0.48547805 3.75360188 0.96910273 5.63108826 1.45098877 C9.52809313 2.45607694 13.4208571 3.47570201 17.31079102 4.5078125 C22.27123503 5.82382154 27.2379782 7.11374616 32.20768833 8.39426804 C36.99494615 9.62896142 41.77883005 10.8764918 46.5625 12.125 C47.45933565 12.35794518 48.3561713 12.59089035 49.28018379 12.83089447 C78.34369088 20.40833725 78.34369088 20.40833725 84.49609375 30.703125 C86.63779724 34.51521859 87.11812141 38.01643771 87.68359375 42.328125 C88.29675949 42.13618561 88.90992523 41.94424622 89.54167175 41.74649048 C107.9031349 36.01354617 126.34839481 30.61547311 144.83990479 25.32086182 C149.15618472 24.08427028 153.4713572 22.84381834 157.78663445 21.60373306 C161.26544241 20.60437314 164.74481897 19.60709515 168.22561646 18.61468506 C174.1889717 16.91343602 180.14664294 15.19920462 186.08349609 13.40722656 C187.03943161 13.1223941 187.99536713 12.83756165 188.98027039 12.5440979 C190.68679234 12.03419339 192.3906343 11.51516379 194.09065247 10.98397827 C203.42323956 8.21666173 210.97862122 8.77351378 219.5625 13.32421875 C225.15796698 16.81685365 228.40879493 22.1003112 230.30078125 28.375 C231.62764308 35.14470321 230.6037882 41.16185006 227.68359375 47.328125 C223.14849181 53.99891996 217.82409736 57.32044391 210.55859375 60.515625 C209.55417236 60.97646484 208.54975098 61.43730469 207.51489258 61.91210938 C204.2466913 63.40471701 200.9663295 64.86779565 197.68359375 66.328125 C195.52298263 67.30237727 193.36282952 68.27764588 191.203125 69.25390625 C186.46229716 71.39081157 181.7152839 73.51348147 176.96484375 75.62890625 C168.30976166 79.48497325 159.67849005 83.39329794 151.04760742 87.30316162 C131.92086234 95.96759633 112.78034877 104.60104335 93.6260376 113.20436096 C89.10889075 115.23436767 84.59537295 117.27213897 80.08561707 119.31851196 C77.39010639 120.54123435 74.69304278 121.76050608 71.99575806 122.97930908 C70.18664832 123.79844301 68.37977852 124.62251845 66.57299805 125.44677734 C65.49445557 125.93355957 64.41591309 126.4203418 63.3046875 126.921875 C62.38099365 127.34146484 61.4572998 127.76105469 60.50561523 128.19335938 C44.9536283 134.44698298 29.37701325 130.52666959 13.53728676 127.43901062 C9.85116436 126.72059366 6.16212928 126.01926304 2.4719696 125.32189941 C-4.69309421 123.96483482 -11.85461948 122.58977778 -19.01550293 121.21088409 C-28.76281939 119.33456756 -38.51226564 117.46987833 -48.2653904 115.62394714 C-51.8831002 114.93520634 -55.49801476 114.23298753 -59.11296082 113.52990723 C-61.34822186 113.10461477 -63.58359329 112.67990189 -65.8190918 112.25585938 C-66.80901627 112.05949387 -67.79894073 111.86312836 -68.81886292 111.66081238 C-79.82439718 109.60432919 -89.86290899 110.05227658 -100.7421875 112.515625 C-101.77401657 112.73758545 -102.80584564 112.9595459 -103.86894226 113.18823242 C-107.12491104 113.88994917 -110.37703271 114.60768911 -113.62890625 115.328125 C-116.89897172 116.04671471 -120.16971377 116.76158805 -123.44242859 117.46801758 C-125.46751123 117.90566935 -127.49107114 118.35044804 -129.51277161 118.8034668 C-134.53994675 119.89540557 -139.16867052 120.78445285 -144.31640625 120.328125 C-152.21825094 112.42628031 -149.50324081 94.26811873 -149.5546875 83.98046875 C-149.55876303 83.28026674 -149.56283855 82.58006474 -149.56703758 81.85864449 C-149.58765725 78.17114711 -149.60207563 74.48368456 -149.61157227 70.79614258 C-149.62275241 66.99981653 -149.65735024 63.20405805 -149.69674397 59.40793514 C-149.72284319 56.46970011 -149.7312567 53.53160438 -149.73485374 50.59326363 C-149.73971557 49.19261276 -149.75131821 47.79196796 -149.76989174 46.39143181 C-149.79419667 44.44200651 -149.79090691 42.49229616 -149.78637695 40.54272461 C-149.79224319 39.4360997 -149.79810944 38.32947479 -149.80415344 37.1893158 C-149.20976508 33.70255354 -148.01004313 32.53099341 -145.31640625 30.328125 C-145.85265625 29.585625 -146.38890625 28.843125 -146.94140625 28.078125 C-147.39515625 27.170625 -147.84890625 26.263125 -148.31640625 25.328125 C-147.40234375 23.15625 -147.40234375 23.15625 -146.31640625 21.328125 C-145.00897461 21.39620361 -143.70154297 21.46428223 -142.35449219 21.53442383 C-116.79910417 22.74767732 -95.82810653 23.64495469 -73.39697266 10.11621094 C-68.12240847 7.05463952 -62.56419067 4.6316629 -57.00390625 2.140625 C-56.02421875 1.68389404 -55.04453125 1.22716309 -54.03515625 0.7565918 C-53.12121094 0.33289307 -52.20726562 -0.09080566 -51.265625 -0.52734375 C-50.47502686 -0.89496826 -49.68442871 -1.26259277 -48.86987305 -1.64135742 C-32.76787287 -8.13973612 -16.14018583 -4.32489115 0 0 Z " fill="#FEFEFE" transform="translate(222.31640625,339.671875)"/>
<path d="M0 0 C1.01416992 0.20085205 1.01416992 0.20085205 2.04882812 0.40576172 C17.58357371 3.63890125 35.41149352 10.6375506 45.125 23.8125 C47.7979821 28.69859631 48.08834219 33.58916401 47 39 C45.41894963 42.39413202 43.3448981 45.10016082 41 48 C40.57847656 48.69738281 40.15695313 49.39476562 39.72265625 50.11328125 C38.28717775 52.29049637 37.21379271 53.6041548 35 55 C31.7416196 55.32672107 28.65130119 55.17887091 25.3828125 55.00390625 C15.78783428 54.9928266 8.09371132 60.19597842 1.3515625 66.5546875 C-10.41563669 79.0386704 -9.61152941 94.66356494 -9.17480469 110.6796875 C-8.80130129 117.77416546 -7.35138319 124.31383431 -5 131 C-4.76394043 131.67562988 -4.52788086 132.35125977 -4.28466797 133.04736328 C0.38881461 145.89266066 7.36332936 156.30849699 18 165 C18 165.33 18 165.66 18 166 C3.4661963 166.11679545 -11.06753465 166.20463696 -25.60171127 166.25906086 C-32.35019365 166.28484403 -39.09838446 166.31999594 -45.84667969 166.37719727 C-52.35647746 166.43235069 -58.86608583 166.46140404 -65.37610626 166.47438622 C-67.86249822 166.48364044 -70.34887317 166.50171135 -72.83513641 166.52865028 C-76.31200809 166.56483175 -79.78761947 166.56994967 -83.26464844 166.56762695 C-84.29755005 166.58560333 -85.33045166 166.60357971 -86.39465332 166.62210083 C-93.2324827 166.57251818 -93.2324827 166.57251818 -96.64179993 164.02938843 C-98.49400737 159.89814451 -98.53486091 156.44311056 -98.46655273 151.9621582 C-98.46885895 151.06065536 -98.47116516 150.15915253 -98.47354126 149.23033142 C-98.47616758 147.27640844 -98.46974099 145.3224569 -98.45528984 143.36858559 C-98.43337093 140.26927479 -98.43713205 137.17093849 -98.44776917 134.07157898 C-98.46942309 126.3709824 -98.45214293 118.67060191 -98.42626953 110.97003174 C-98.40480673 104.46620526 -98.40301453 97.96300492 -98.42918587 91.45918846 C-98.43351601 88.41788279 -98.4089539 85.37768327 -98.38365173 82.33650208 C-98.37342103 69.46645173 -99.84956169 61.39423688 -108.640625 51.62890625 C-112.89146144 46.53523155 -113.56277655 41.094335 -113.3359375 34.69921875 C-112.26813978 26.11958822 -106.46384134 20.30891868 -100 15 C-86.5409272 5.4472544 -69.35524103 -0.31491456 -53 -2 C-52.21109375 -2.10828125 -51.4221875 -2.2165625 -50.609375 -2.328125 C-33.70940963 -4.34761772 -16.64245518 -3.32776682 0 0 Z " fill="#EECF00" transform="translate(181,140)"/>
<path d="M0 0 C6.28775232 3.94567008 11.96302028 8.70976416 15.765625 15.1484375 C16.384375 15.9940625 17.003125 16.8396875 17.640625 17.7109375 C20.3110303 18.21335072 20.3110303 18.21335072 22.640625 17.7109375 C22.90746094 17.13085938 23.17429687 16.55078125 23.44921875 15.953125 C28.66517196 6.13687208 38.29708878 -0.15722807 48.62109375 -3.59375 C60.38451652 -6.30253299 70.62319265 -3.79961079 80.953125 1.9609375 C85.23400248 4.85271392 88.00742205 8.29754101 90.640625 12.7109375 C91.37345703 13.93876953 91.37345703 13.93876953 92.12109375 15.19140625 C98.85305764 28.56104882 96.81396777 45.78010482 92.37255859 59.6640625 C81.85464846 89.07772446 59.18978009 108.46533536 32.41943359 122.73876953 C30.82753759 123.60878461 29.27200104 124.54457057 27.72265625 125.48828125 C26.89121094 125.97425781 26.05976563 126.46023438 25.203125 126.9609375 C24.18412109 127.58742188 24.18412109 127.58742188 23.14453125 128.2265625 C16.27961426 129.55456516 8.73709503 124.42934684 2.953125 121.1484375 C2.17565918 120.71007568 1.39819336 120.27171387 0.59716797 119.82006836 C-24.47865734 105.43192059 -45.82071232 85.03958241 -54.29296875 56.57421875 C-58.22909805 41.56419458 -59.48978603 26.43659382 -51.671875 12.3984375 C-40.43193928 -4.75002188 -17.97780446 -9.82231038 0 0 Z " fill="#DB3A3A" transform="translate(309.359375,227.2890625)"/>
<path d="M0 0 C1.87656077 0.48547805 3.75360188 0.96910273 5.63108826 1.45098877 C9.52809313 2.45607694 13.4208571 3.47570201 17.31079102 4.5078125 C22.27123503 5.82382154 27.2379782 7.11374616 32.20768833 8.39426804 C36.99494615 9.62896142 41.77883005 10.8764918 46.5625 12.125 C47.45933565 12.35794518 48.3561713 12.59089035 49.28018379 12.83089447 C78.34369088 20.40833725 78.34369088 20.40833725 84.49609375 30.703125 C86.63779724 34.51521859 87.11812141 38.01643771 87.68359375 42.328125 C88.29675949 42.13618561 88.90992523 41.94424622 89.54167175 41.74649048 C107.9031349 36.01354617 126.34839481 30.61547311 144.83990479 25.32086182 C149.15618472 24.08427028 153.4713572 22.84381834 157.78663445 21.60373306 C161.26544241 20.60437314 164.74481897 19.60709515 168.22561646 18.61468506 C174.1889717 16.91343602 180.14664294 15.19920462 186.08349609 13.40722656 C187.03943161 13.1223941 187.99536713 12.83756165 188.98027039 12.5440979 C190.68679234 12.03419339 192.3906343 11.51516379 194.09065247 10.98397827 C203.42323956 8.21666173 210.97862122 8.77351378 219.5625 13.32421875 C225.15796698 16.81685365 228.40879493 22.1003112 230.30078125 28.375 C231.62764308 35.14470321 230.6037882 41.16185006 227.68359375 47.328125 C223.14849181 53.99891996 217.82409736 57.32044391 210.55859375 60.515625 C209.55417236 60.97646484 208.54975098 61.43730469 207.51489258 61.91210938 C204.2466913 63.40471701 200.9663295 64.86779565 197.68359375 66.328125 C195.52298263 67.30237727 193.36282952 68.27764588 191.203125 69.25390625 C186.46229716 71.39081157 181.7152839 73.51348147 176.96484375 75.62890625 C168.30976166 79.48497325 159.67849005 83.39329794 151.04760742 87.30316162 C131.92086234 95.96759633 112.78034877 104.60104335 93.6260376 113.20436096 C89.10889075 115.23436767 84.59537295 117.27213897 80.08561707 119.31851196 C77.39010639 120.54123435 74.69304278 121.76050608 71.99575806 122.97930908 C70.18664832 123.79844301 68.37977852 124.62251845 66.57299805 125.44677734 C65.49445557 125.93355957 64.41591309 126.4203418 63.3046875 126.921875 C62.38099365 127.34146484 61.4572998 127.76105469 60.50561523 128.19335938 C44.9536283 134.44698298 29.37701325 130.52666959 13.53728676 127.43901062 C9.85116436 126.72059366 6.16212928 126.01926304 2.4719696 125.32189941 C-4.69309421 123.96483482 -11.85461948 122.58977778 -19.01550293 121.21088409 C-28.76281939 119.33456756 -38.51226564 117.46987833 -48.2653904 115.62394714 C-51.8831002 114.93520634 -55.49801476 114.23298753 -59.11296082 113.52990723 C-61.34822186 113.10461477 -63.58359329 112.67990189 -65.8190918 112.25585938 C-66.80901627 112.05949387 -67.79894073 111.86312836 -68.81886292 111.66081238 C-79.82439718 109.60432919 -89.86290899 110.05227658 -100.7421875 112.515625 C-101.77401657 112.73758545 -102.80584564 112.9595459 -103.86894226 113.18823242 C-107.12491104 113.88994917 -110.37703271 114.60768911 -113.62890625 115.328125 C-116.89897172 116.04671471 -120.16971377 116.76158805 -123.44242859 117.46801758 C-125.46751123 117.90566935 -127.49107114 118.35044804 -129.51277161 118.8034668 C-134.53994675 119.89540557 -139.16867052 120.78445285 -144.31640625 120.328125 C-144.97640625 119.668125 -145.63640625 119.008125 -146.31640625 118.328125 C-145.94140625 115.703125 -145.94140625 115.703125 -145.31640625 113.328125 C-139.17975542 111.15767798 -133.05767263 109.44840026 -126.69921875 108.06640625 C-125.80258514 107.87088669 -124.90595154 107.67536713 -123.98214722 107.47392273 C-122.09194768 107.06508496 -120.20107412 106.65935222 -118.30957031 106.2565918 C-116.41345213 105.84938153 -114.51917198 105.43350629 -112.62695312 105.00854492 C-93.42270493 100.69564117 -76.5177238 100.33569461 -57.25390625 104.140625 C-55.62976583 104.44782579 -54.00532269 104.75342954 -52.38061523 105.05761719 C-48.75665218 105.73956194 -45.13503959 106.43264467 -41.51464844 107.13330078 C-34.49701668 108.48996296 -27.47312598 109.81299761 -20.44921875 111.13671875 C-10.36268741 113.0396073 -0.2780281 114.95199755 9.8046875 116.875 C13.11402867 117.50557995 16.42340564 118.1359713 19.7328186 118.76617432 C21.60393557 119.12251304 23.47501372 119.47905568 25.34603882 119.83587646 C27.59628468 120.2645457 29.84688727 120.69127493 32.09765625 121.1171875 C33.27666504 121.34100098 34.45567383 121.56481445 35.67041016 121.79541016 C43.73506769 123.22119874 48.89467249 122.47976071 56.48046875 119.25390625 C57.60119026 118.78439796 57.60119026 118.78439796 58.74455261 118.30540466 C65.849486 115.30562277 72.86558468 112.11924671 79.86303711 108.87817383 C83.64956848 107.12510992 87.44181229 105.38450047 91.234375 103.64453125 C92.01555695 103.2860611 92.79673889 102.92759094 93.60159302 102.55825806 C101.93089817 98.74400763 110.30520042 95.0329638 118.68359375 91.328125 C131.89916558 85.48078121 145.06318257 79.53006134 158.1940918 73.49511719 C166.29785822 69.77363495 174.41892008 66.0945645 182.5625 62.4609375 C183.47548859 62.05291901 184.38847717 61.64490051 185.32913208 61.22451782 C189.78790271 59.23197269 194.24882548 57.24456566 198.71386719 55.26611328 C200.33539921 54.5422447 201.9568239 53.81813564 203.578125 53.09375 C204.31092178 52.77149445 205.04371857 52.44923889 205.79872131 52.11721802 C213.59031841 48.62333135 213.59031841 48.62333135 219.55859375 42.703125 C221.51976044 36.81962494 221.7754429 31.59581169 219.05859375 25.953125 C215.91839722 22.48238147 213.41195993 19.77632909 208.60742188 18.98706055 C198.8602623 18.65071763 189.97321534 21.74659304 180.74609375 24.515625 C178.89873258 25.05824944 177.0509864 25.59956464 175.20288086 26.13964844 C170.34323464 27.56364106 165.48901365 29.00532004 160.63574219 30.4508667 C155.79026767 31.89074441 150.93991073 33.31396481 146.08984375 34.73828125 C140.45174792 36.3941612 134.81522936 38.05463513 129.18579102 39.73974609 C121.16532422 42.13861533 113.14808428 44.50298224 105.0546875 46.64453125 C103.15674438 47.16031738 103.15674438 47.16031738 101.22045898 47.68652344 C98.95223661 48.29839705 96.67723329 48.88595851 94.39477539 49.44238281 C89.14175067 50.77552509 89.14175067 50.77552509 85.20410156 54.24291992 C84.11087047 56.34105614 84.11087047 56.34105614 83.39160156 58.4453125 C81.26937266 64.08897778 74.83296506 67.66642214 69.68359375 70.328125 C61.14486221 72.93888073 51.70149652 71.10489231 43.1015625 69.6484375 C42.04375076 69.47561249 40.98593903 69.30278748 39.89607239 69.12472534 C37.67945501 68.76066818 35.46352868 68.39238003 33.24829102 68.02001953 C29.8644472 67.45200931 26.47842044 66.89882464 23.09179688 66.34765625 C20.928242 65.99045091 18.76482533 65.63240724 16.6015625 65.2734375 C15.09205269 65.026436 15.09205269 65.026436 13.55204773 64.77444458 C8.7637174 63.96369688 4.24585964 63.0572973 -0.31640625 61.328125 C-0.44140625 58.953125 -0.44140625 58.953125 -0.31640625 56.328125 C1.68359375 54.328125 1.68359375 54.328125 3.52270508 54.22631836 C14.85901752 55.41176298 26.08172595 57.4768437 37.31274414 59.39233398 C40.16852586 59.87780971 43.02555793 60.35531225 45.8828125 60.83203125 C47.17997444 61.05700035 47.17997444 61.05700035 48.50334167 61.28651428 C56.54673655 62.62175211 64.33658602 63.52866261 71.68359375 59.328125 C75.47427141 56.07485987 77.72434581 52.2202895 78.68359375 47.328125 C78.77173818 41.31226763 77.67779296 35.9511268 73.68359375 31.328125 C68.55640419 27.97190135 62.81990563 26.32099159 56.9284668 24.87036133 C56.09331039 24.65680496 55.25815399 24.4432486 54.39768982 24.22322083 C51.66568218 23.52685996 48.93060835 22.84347518 46.1953125 22.16015625 C44.28557978 21.67585962 42.37606234 21.19071334 40.4667511 20.70475769 C35.460784 19.43290139 30.45214758 18.17189758 25.44281006 16.91339111 C19.34360582 15.37898563 13.24757809 13.83201897 7.15112782 12.28671551 C2.41167464 11.08559841 -2.32824115 9.88642038 -7.06965637 8.69306946 C-8.37366898 8.3643132 -8.37366898 8.3643132 -9.70402527 8.02891541 C-11.32723125 7.61977338 -12.9506567 7.21150064 -14.57434082 6.80426025 C-17.52520582 6.05970259 -20.42795829 5.29094099 -23.31640625 4.328125 C-25.29072223 4.15483971 -27.27252564 4.0612568 -29.25390625 4.015625 C-30.81431641 3.95955078 -30.81431641 3.95955078 -32.40625 3.90234375 C-42.50439673 5.00194215 -51.59942605 9.68519477 -60.59063721 14.15786743 C-63.75165647 15.72962049 -66.92508083 17.27596031 -70.09765625 18.82421875 C-70.71943756 19.12829147 -71.34121887 19.4323642 -71.98184204 19.74565125 C-77.25553132 22.31724194 -82.57410093 24.7714673 -87.94140625 27.140625 C-88.66215332 27.4593457 -89.38290039 27.77806641 -90.12548828 28.10644531 C-94.4212746 29.98578562 -97.9088246 31.46803521 -102.61669922 31.3815918 C-103.48124725 31.3679509 -104.34579529 31.35431 -105.23654175 31.34025574 C-106.16781891 31.31949478 -107.09909607 31.29873383 -108.05859375 31.27734375 C-109.01911652 31.2584761 -109.97963928 31.23960846 -110.9692688 31.22016907 C-113.0018699 31.17828688 -115.03441387 31.13354946 -117.06689453 31.08618164 C-120.17208645 31.01606127 -123.27729469 30.96166159 -126.3828125 30.90820312 C-128.35809394 30.86554615 -130.33335552 30.82195697 -132.30859375 30.77734375 C-133.23582245 30.76265549 -134.16305115 30.74796722 -135.11837769 30.73283386 C-143.45447969 30.51173768 -143.45447969 30.51173768 -147.31640625 28.328125 C-148.25390625 26.390625 -148.25390625 26.390625 -148.31640625 24.328125 C-147.32640625 22.843125 -147.32640625 22.843125 -146.31640625 21.328125 C-144.44204712 21.05484009 -144.44204712 21.05484009 -142.12744141 21.19384766 C-141.25596466 21.23545517 -140.38448792 21.27706268 -139.48660278 21.31993103 C-138.53582855 21.37677567 -137.58505432 21.4336203 -136.60546875 21.4921875 C-134.56854833 21.57532308 -132.53142071 21.6534966 -130.49414062 21.72729492 C-129.42381592 21.76696381 -128.35349121 21.80663269 -127.25073242 21.84750366 C-106.2596133 22.51746183 -91.60823247 21.09984952 -73.39697266 10.11621094 C-68.12240847 7.05463952 -62.56419067 4.6316629 -57.00390625 2.140625 C-56.02421875 1.68389404 -55.04453125 1.22716309 -54.03515625 0.7565918 C-53.12121094 0.33289307 -52.20726562 -0.09080566 -51.265625 -0.52734375 C-50.47502686 -0.89496826 -49.68442871 -1.26259277 -48.86987305 -1.64135742 C-32.76787287 -8.13973612 -16.14018583 -4.32489115 0 0 Z " fill="#030303" transform="translate(222.31640625,339.671875)"/>
<path d="M0 0 C21.45 0 42.9 0 65 0 C65.04511214 21.85266877 65.08196892 43.70529995 65.10362434 65.55800343 C65.11394569 75.70413185 65.12802238 85.85022933 65.15087891 95.99633789 C65.17078655 104.83762481 65.18371019 113.67888933 65.18817699 122.52019805 C65.19078883 127.2034585 65.19694554 131.88665484 65.21146011 136.56989479 C65.22500258 140.97503197 65.22922942 145.38007844 65.22621536 149.78523445 C65.22676702 151.40459943 65.2307643 153.02396734 65.23841095 154.64331436 C65.24832012 156.8494244 65.2459838 159.0551892 65.24050903 161.26130676 C65.24235262 162.49743115 65.24419621 163.73355555 65.24609566 165.00713825 C65 168 65 168 63 171 C60.56982422 171.34057617 60.56982422 171.34057617 57.5546875 171.29296875 C56.47832031 171.28330078 55.40195312 171.27363281 54.29296875 171.26367188 C53.16503906 171.23853516 52.03710938 171.21339844 50.875 171.1875 C49.73933594 171.17396484 48.60367188 171.16042969 47.43359375 171.14648438 C44.62192613 171.11104319 41.81119583 171.06163517 39 171 C40.36618063 166.79393463 41.87989582 162.67697189 43.5 158.5625 C49.52004367 142.94579848 52.81829569 122.59397106 46.328125 106.57421875 C40.08790834 94.47921057 31.81960119 86.96575024 19.0390625 82.28125 C12.76873832 80.48216965 6.58811411 80.50677801 0 80 C0 53.6 0 27.2 0 0 Z " fill="#FBFBFB" transform="translate(363,135)"/>
<path d="M0 0 C11.98183466 3.75688325 21.00406255 2.88272703 33.03515625 -0.59375 C41.50261654 -2.62523996 50.06987858 -2.83380455 57.90625 1.2890625 C65.30990035 5.99220104 65.30990035 5.99220104 66.8125 10.5 C66.22984375 10.58636719 65.6471875 10.67273438 65.046875 10.76171875 C52.4160606 12.9264338 42.20175515 17.55424782 33.8125 27.5 C24.08612703 42.0557286 23.32648937 57.15757917 26.32080078 73.96386719 C27.89221618 81.81917259 30.75993978 89.11943657 33.8125 96.5 C34.4803065 98.16621028 35.14747948 99.83267582 35.8125 101.5 C33.91698978 101.55441656 32.0210208 101.59298035 30.125 101.625 C29.06925781 101.64820313 28.01351562 101.67140625 26.92578125 101.6953125 C23.76559785 101.49705758 21.68460996 100.76235838 18.8125 99.5 C15.63555484 99.23525457 13.48975122 99.19899946 10.5625 100.5 C2.95677049 103.26571982 -4.07347778 101.43731115 -11.23046875 98.17578125 C-26.3501254 89.60731004 -34.30520387 74.93425276 -39 58.8125 C-41.03082698 51.22285128 -41.68354995 43.84415402 -41.75 36 C-41.76458252 35.02200439 -41.77916504 34.04400879 -41.79418945 33.03637695 C-41.65041403 22.75687021 -38.54103827 12.91847018 -31.1875 5.5 C-21.10859969 -2.62464315 -12.05780849 -4.13462617 0 0 Z " fill="#31B126" transform="translate(220.1875,204.5)"/>
<path d="M0 0 C21.45 0 42.9 0 65 0 C65 27.06 65 54.12 65 82 C57.08 85.96 57.08 85.96 49 90 C43.84487799 94.16805494 43.84487799 94.16805494 40 99 C36.1463319 97.42998707 33.91634493 94.91634493 31 92 C24.63570851 86.24183151 16.53044809 82.12002062 8.01626587 80.65977478 C4.49710519 79.50821362 3.14104179 77.02995552 1.23504639 73.98171997 C-1.3150496 67.82513168 -0.72329464 61.13880692 -0.5859375 54.58984375 C-0.57472788 53.01088585 -0.56619605 51.43190688 -0.56021118 49.85292053 C-0.53745096 45.72438555 -0.47864266 41.59714465 -0.4119873 37.46911621 C-0.33941093 32.5015868 -0.31219739 27.53362134 -0.27726746 22.56571198 C-0.21935111 15.04291173 -0.10429754 7.52294311 0 0 Z " fill="#FDFDFD" transform="translate(290,135)"/>
<path d="M0 0 C7.97039231 -0.53691764 15.93308391 -0.94330518 23.91716957 -1.19167995 C27.62711594 -1.31102778 31.32459205 -1.47201636 35.02734375 -1.73510742 C58.79071965 -3.37909293 58.79071965 -3.37909293 65.63989258 2.11923218 C70.20165858 7.54866536 73.07726494 13.67825866 75.78656006 20.18875122 C77.37865631 23.87725568 79.35777917 27.00999818 81.578125 30.35546875 C82.51205078 31.84143555 82.51205078 31.84143555 83.46484375 33.35742188 C84.70178049 35.31838614 85.93876275 37.27932169 87.17578125 39.24023438 C87.78292969 40.20638672 88.39007813 41.17253906 89.015625 42.16796875 C89.54446289 43.00610107 90.07330078 43.8442334 90.61816406 44.70776367 C91.8596346 46.76715712 92.93924522 48.84428111 94 51 C86.06472026 51.60783708 78.13937859 52.06668223 70.18645477 52.34711647 C66.49036618 52.4819045 62.81034539 52.66345792 59.12353516 52.96142578 C35.48730859 54.82132322 35.48730859 54.82132322 28.16137695 48.58267212 C23.05218029 42.34329412 19.67431859 35.46075893 16.4206543 28.12207031 C14.6564614 24.24502979 12.52468158 20.77339668 10.15625 17.24609375 C9.53105469 16.25158203 8.90585937 15.25707031 8.26171875 14.23242188 C7.02541544 12.2710582 5.78837177 10.31016109 4.55078125 8.34960938 C3.94621094 7.38732422 3.34164063 6.42503906 2.71875 5.43359375 C2.19216797 4.59884521 1.66558594 3.76409668 1.12304688 2.90405273 C0 1 0 1 0 0 Z " fill="#FEFEFE" transform="translate(330,76)"/>
<path d="M0 0 C1.01416992 0.20085205 1.01416992 0.20085205 2.04882812 0.40576172 C17.19834574 3.55872641 35.19403128 10.41030258 44.6875 23.3125 C46 26 46 26 45 29 C39.17971851 29.72753519 39.17971851 29.72753519 36.17578125 27.875 C34.87117005 26.82474696 33.56931107 25.77107018 32.26953125 24.71484375 C8.30271244 6.60566396 -29.43479783 6.05801877 -57.97875977 9.77416992 C-74.1184307 12.41240302 -90.08995401 18.43888443 -100 32 C-102.2645175 35.92668859 -102.90458878 39.539984 -102 44 C-99.72220524 48.50226322 -96.61580151 52.33828851 -93.3125 56.125 C-88.30991083 62.34443518 -87.55535252 67.72487236 -87.59594727 75.4519043 C-87.58908401 76.37309052 -87.58222076 77.29427673 -87.57514954 78.24337769 C-87.55693417 81.27048399 -87.56070988 84.29706972 -87.56640625 87.32421875 C-87.56184354 89.43455676 -87.5565377 91.54489329 -87.55052185 93.65522766 C-87.54160233 98.06912287 -87.54400265 102.48283701 -87.55395508 106.89672852 C-87.56547238 112.55631133 -87.54518491 118.21527278 -87.51603794 123.87477398 C-87.49771085 128.22847974 -87.49796094 132.5820354 -87.50367546 136.93577003 C-87.50382895 139.0229969 -87.49776213 141.11023377 -87.48538399 143.19742393 C-87.47053336 146.11077601 -87.48110563 149.02296408 -87.49829102 151.9362793 C-87.48862305 152.79922104 -87.47895508 153.66216278 -87.46899414 154.55125427 C-87.54110446 160.3787135 -87.54110446 160.3787135 -89.89854431 163.57038879 C-92 165 -92 165 -94.125 164.9375 C-96 164 -96 164 -98 161 C-98.18815417 158.03192508 -98.25933002 155.15721251 -98.23950195 152.18920898 C-98.24151611 151.2879982 -98.24353027 150.38678741 -98.24560547 149.45826721 C-98.24915357 147.49886316 -98.24838069 145.53944767 -98.24382973 143.5800457 C-98.2382391 140.47266845 -98.24739303 137.3656649 -98.2610321 134.25831604 C-98.29815874 125.42243881 -98.31673667 116.58668544 -98.30541992 107.75073242 C-98.29954695 102.34596728 -98.31794143 96.94172422 -98.35130882 91.53706551 C-98.35923393 89.48273236 -98.3580253 87.42834188 -98.34728432 85.37402153 C-98.27767587 71.45376324 -99.04445587 62.28856835 -108.640625 51.62890625 C-112.89146144 46.53523155 -113.56277655 41.094335 -113.3359375 34.69921875 C-112.26813978 26.11958822 -106.46384134 20.30891868 -100 15 C-86.5409272 5.4472544 -69.35524103 -0.31491456 -53 -2 C-52.21109375 -2.10828125 -51.4221875 -2.2165625 -50.609375 -2.328125 C-33.70940963 -4.34761772 -16.64245518 -3.32776682 0 0 Z " fill="#FDFCFB" transform="translate(181,140)"/>
<path d="M0 0 C6.28775232 3.94567008 11.96302028 8.70976416 15.765625 15.1484375 C16.384375 15.9940625 17.003125 16.8396875 17.640625 17.7109375 C20.3110303 18.21335072 20.3110303 18.21335072 22.640625 17.7109375 C22.90746094 17.13085938 23.17429687 16.55078125 23.44921875 15.953125 C28.66517196 6.13687208 38.29708878 -0.15722807 48.62109375 -3.59375 C59.9123622 -6.19380923 70.40549919 -4.17709971 80.265625 1.7109375 C82.640625 3.7109375 82.640625 3.7109375 83.515625 5.9609375 C83.556875 6.5384375 83.598125 7.1159375 83.640625 7.7109375 C80.640625 9.7109375 80.640625 9.7109375 78.015625 9.5234375 C75.3106584 8.87224184 72.87008197 8.09143054 70.265625 7.1484375 C61.28140745 4.10370267 53.49995061 5.98378595 45.09765625 9.89453125 C37.64119074 13.97535656 32.11042127 19.81519756 27.21484375 26.72265625 C26.015625 28.3984375 26.015625 28.3984375 23.640625 30.7109375 C20.296875 30.7421875 20.296875 30.7421875 16.640625 29.7109375 C14.69753274 27.63414623 13.29225117 25.86375092 11.765625 23.5234375 C7.74127049 17.85296633 3.93402597 13.90979324 -2.359375 10.7109375 C-2.94589844 10.37578125 -3.53242188 10.040625 -4.13671875 9.6953125 C-11.43130271 6.18369659 -21.70709625 6.40757536 -29.37109375 8.5546875 C-37.11997557 12.06719748 -42.35808083 17.79513701 -45.796875 25.5234375 C-50.68617919 40.74166136 -47.19575816 56.51992274 -40.109375 70.3359375 C-35.95087262 77.69057122 -31.20422333 84.5008702 -25.62890625 90.8515625 C-25.16911377 91.38064209 -24.70932129 91.90972168 -24.2355957 92.45483398 C-22.92757921 93.94569897 -21.59715783 95.4168188 -20.265625 96.88671875 C-18.06755559 100.1432847 -17.95014927 101.8630789 -18.359375 105.7109375 C-34.4335315 98.63240987 -46.21909886 78.27218006 -52.33203125 62.69140625 C-57.69791091 47.12423446 -60.17407283 30.40907824 -53.10546875 14.97265625 C-48.08338102 5.954793 -41.41687733 0.28853016 -31.7734375 -3.41015625 C-21.2534962 -6.11837912 -9.57283967 -5.23019386 0 0 Z " fill="#FBF9F9" transform="translate(309.359375,227.2890625)"/>
<path d="M0 0 C11.96779194 3.75248018 21.0060839 2.90910294 33.01953125 -0.6015625 C40.61784764 -2.40136968 48.62364223 -2.84054729 55.8125 0.5 C55.5 2.375 55.5 2.375 54.8125 4.5 C51.58567162 6.65121892 50.92097919 6.65877559 47.25 6.6875 C40.76409468 7.11931793 35.32062621 9.44289454 29.44702148 12.0612793 C21.16726946 15.6011002 14.84216011 15.28164603 6.4375 12 C-2.08302314 8.93521727 -9.0443375 7.77506784 -17.5 11.5625 C-25.75269567 16.24469501 -29.35437433 22.61496192 -32.1875 31.5 C-33.01638749 34.47314468 -33.01638749 34.47314468 -33.1875 37.5 C-33.25066406 38.16773438 -33.31382812 38.83546875 -33.37890625 39.5234375 C-34.16883293 54.86330397 -27.5719027 72.9610728 -17.8984375 84.6328125 C-16.15940028 86.58092088 -16.15940028 86.58092088 -13.9921875 88.5390625 C-12.1875 90.5 -12.1875 90.5 -11.9375 93.75 C-12.02 94.6575 -12.1025 95.565 -12.1875 96.5 C-22.19985107 93.15662167 -28.73082084 83.37610725 -33.4296875 74.375 C-39.09077514 62.57442294 -41.38091605 49.84721125 -41.5 36.875 C-41.52900391 35.84503906 -41.55800781 34.81507813 -41.58789062 33.75390625 C-41.66868508 23.8721224 -39.25859422 15.05442502 -32.95703125 7.28515625 C-23.26850195 -2.48892298 -12.63760959 -4.33344015 0 0 Z " fill="#F9FBF9" transform="translate(220.1875,204.5)"/>
<path d="M0 0 C3.12694402 2.90978321 5.3282593 5.86764767 7.5390625 9.515625 C8.19777344 10.59529541 8.85648437 11.67496582 9.53515625 12.78735352 C10.23187351 13.94150704 10.92848626 15.09572365 11.625 16.25 C12.6968441 18.01295463 13.77050652 19.77479373 14.84417725 21.53663635 C15.55601187 22.70518991 16.26715585 23.87416446 16.9776001 25.04356384 C20.34366849 30.58116694 23.7838075 36.07068329 27.25634766 41.54199219 C30 45.89399246 30 45.89399246 30 47 C10.86 47 -8.28 47 -28 47 C-26.47395759 43.18489399 -25.06901079 40.30152813 -22.91015625 36.89453125 C-22.295354 35.91871094 -21.68055176 34.94289062 -21.04711914 33.9375 C-20.39219482 32.90625 -19.73727051 31.875 -19.0625 30.8125 C-17.70758909 28.66322941 -16.35343001 26.51348469 -15 24.36328125 C-14.32710938 23.2954541 -13.65421875 22.22762695 -12.9609375 21.12744141 C-10.12618122 16.6063722 -7.33822315 12.05748461 -4.5625 7.5 C-4.09658447 6.73534424 -3.63066895 5.97068848 -3.15063477 5.18286133 C-2.09935592 3.45589011 -1.04949023 1.72805875 0 0 Z " fill="#FDFDFD" transform="translate(322,80)"/>
<path d="M0 0 C1.69206825 -0.01902626 1.69206825 -0.01902626 3.4183197 -0.03843689 C4.63709305 -0.03550125 5.85586639 -0.03256561 7.11157227 -0.02954102 C8.36301529 -0.03478287 9.61445831 -0.04002472 10.90382385 -0.04542542 C13.55290061 -0.05185494 16.20111791 -0.0519321 18.85009766 -0.04199219 C22.24104411 -0.03050676 25.63094854 -0.05070407 29.02175808 -0.07990932 C32.26003481 -0.10269268 35.49823415 -0.09580382 38.73657227 -0.09204102 C40.56169594 -0.10889198 40.56169594 -0.10889198 42.4236908 -0.12608337 C44.12048729 -0.11201195 44.12048729 -0.11201195 45.8515625 -0.09765625 C47.34356422 -0.097407 47.34356422 -0.097407 48.8657074 -0.09715271 C51.49047852 0.40405273 51.49047852 0.40405273 55.49047852 4.40405273 C55.49047852 9.35405273 55.49047852 14.30405273 55.49047852 19.40405273 C34.37047852 19.40405273 13.25047852 19.40405273 -8.50952148 19.40405273 C-8.50952148 14.12405273 -8.50952148 8.84405273 -8.50952148 3.40405273 C-5.07185776 -0.03361099 -4.60228218 0.02501937 0 0 Z " fill="#FCFCFC" transform="translate(335.509521484375,48.595947265625)"/>
<path d="M0 0 C3.88446678 2.58964452 6.69907021 5.64814041 8.8125 9.875 C9.57288689 16.69355126 9.0667913 21.42078038 4.8125 26.875 C0.01959653 30.61346471 -3.76334862 31.52843382 -9.82421875 31.26171875 C-14.6449045 30.47287926 -17.33174878 27.82326487 -20.5 24.3125 C-23.42371536 20.08935558 -23.85098435 15.88799289 -23.1875 10.875 C-21.40011411 6.05682934 -18.446006 2.714004 -14.1875 -0.125 C-9.20670617 -1.78526461 -4.88476371 -1.72403425 0 0 Z " fill="#050400" transform="translate(127.1875,259.125)"/>
<path d="M0 0 C4.48044876 2.47557869 7.01261692 5.75782086 8.875 10.5 C9.90117132 15.76899503 8.83879725 20.05430413 5.875 24.5 C1.71915562 28.60043312 -1.46261626 30.66521107 -7.3125 30.875 C-12.14777075 30.82430253 -15.07819914 30.13711393 -18.75390625 26.97265625 C-22.99210959 22.42051192 -23.6751257 17.90948724 -23.4765625 11.8984375 C-22.76550593 7.04745154 -20.07906484 4.36098535 -16.5625 1.1875 C-11.31564314 -2.44493937 -5.78020228 -2.48035145 0 0 Z " fill="#050400" transform="translate(134.125,172.5)"/>
<path d="M0 0 C2 2 2 2 2 4.375 C0.61173149 8.01920483 -1.78862497 8.90277549 -5 11 C-9.74787448 19.54299822 -7.60448266 32.88774506 -5.3125 42 C-3.13217873 49.2315282 -0.18523666 55.72214501 4 62 C3.48275862 65.51724138 3.48275862 65.51724138 2 67 C-0.34375 67.34375 -0.34375 67.34375 -3 67 C-10.04719174 59.95280826 -12.48019756 49.33992889 -15 40 C-15.17885742 39.36779541 -15.35771484 38.73559082 -15.54199219 38.08422852 C-17.50838287 29.13589307 -17.79454538 16.21659658 -13.875 7.875 C-10.60617983 2.77785669 -6.3775731 -1.06292885 0 0 Z " fill="#010400" transform="translate(210,216)"/>
<path d="M0 0 C2.81972931 2.36493426 2.97850831 3.8280665 3.4375 7.5 C3 11 3 11 1.4375 13.4375 C-1.91852406 15.58879747 -4.08421671 15.48947291 -8 15 C-10.375 13.9375 -10.375 13.9375 -12 12 C-12.87281149 8.57109774 -13.32922829 6.10740423 -12.3125 2.6875 C-8.86456992 -1.74555296 -5.18817694 -1.32062686 0 0 Z " fill="#EACB00" transform="translate(125,267)"/>
<path d="M0 0 C4.10238116 1.34259747 5.44380003 2.30374172 7.4375 6.125 C7.4375 9.90410616 7.27039714 12.13193033 4.8125 15.0625 C1.46067947 16.56199866 -0.93230218 16.57877473 -4.5625 16.125 C-7 14.5625 -7 14.5625 -8.5625 12.125 C-9.28718526 7.69636786 -9.05704049 5.84433162 -6.5 2.125 C-3.5625 0.125 -3.5625 0.125 0 0 Z " fill="#E9CB00" transform="translate(127.5625,178.875)"/>
</svg>
