<svg width="141" height="188" viewBox="0 0 141 188" fill="none" xmlns="http://www.w3.org/2000/svg">
<path d="M128.823 52.5058C128.823 81.5015 105.313 105.012 76.3172 105.012H68.7217C39.726 105.012 16.2159 81.5015 16.2159 52.5058C16.2159 23.51 39.726 0 68.7217 0H76.3172C105.313 0 128.823 23.51 128.823 52.5058Z" fill="#333F72"/>
<path d="M141 187.056H0L1.98931 177.049C6.81189 153.418 23.1483 134.61 44.4882 126.05C52.5661 122.795 61.3673 121.047 70.4699 121.047H70.5301C79.4519 121.047 88.0723 122.735 96.0295 125.869C117.611 134.369 134.188 153.237 139.011 177.049L141 187.056Z" fill="#E56E0C"/>
<path d="M42.0167 86.5653C36.8927 91.0865 29.056 90.6042 24.5348 85.4802C20.0137 80.3562 20.4959 72.5196 25.6199 67.9984C30.7439 63.4772 38.5203 63.9595 43.1017 69.0835" fill="#F3EDE1"/>
<path d="M42.0167 86.5653C36.8927 91.0865 29.056 90.6042 24.5348 85.4802C20.0137 80.3562 20.4959 72.5196 25.6199 67.9984C30.7439 63.4772 38.5203 63.9595 43.1017 69.0835" stroke="#333F72" stroke-width="0.904233"/>
<path d="M70.289 151.911C56.4241 151.911 45.2116 140.638 45.2116 126.834C45.2116 126.673 45.2116 126.512 45.2116 126.352C53.2292 123.096 61.7892 121.529 70.4699 121.529C79.0902 121.529 87.4091 123.096 95.3664 126.171C95.3664 126.372 95.3664 126.593 95.3664 126.834C95.3664 140.638 84.0936 151.911 70.289 151.911Z" fill="#F3EDE1"/>
<path fill-rule="evenodd" clip-rule="evenodd" d="M95.7883 125.869C95.7883 126.151 95.7883 126.472 95.7883 126.834C95.7883 140.94 84.395 152.333 70.289 152.333C56.183 152.333 44.7293 140.94 44.7293 126.834C44.7293 126.553 44.7494 126.271 44.7896 125.99C52.7469 122.795 61.4275 121.047 70.4698 121.047H70.5301C79.3916 121.047 87.8914 122.735 95.7883 125.869ZM70.4698 121.951C61.9098 121.951 53.5908 123.518 45.6336 126.653C45.6336 126.693 45.6336 126.753 45.6336 126.834C45.6336 140.397 56.6652 151.429 70.289 151.429C83.8525 151.429 94.8841 140.397 94.8841 126.834C94.8841 126.713 94.8841 126.593 94.8841 126.472C87.1077 123.458 78.9093 121.951 70.5301 121.951H70.4698Z" fill="#333F72"/>
<path d="M58.4134 130.21V99.526H82.5866V130.21" fill="#F3EDE1"/>
<path d="M58.4134 130.21V99.526H82.5866V130.21" stroke="#333F72" stroke-width="0.904233"/>
<path d="M82.1043 102.661V113.21C77.5228 115.682 72.3386 117.068 66.7926 117.068C64.0598 117.068 61.4275 116.747 58.8956 116.104V102.661H82.1043Z" fill="#F3CFBF"/>
<path d="M100.068 60.0411V74.9308C100.068 84.2142 96.3309 92.5332 90.2424 98.6217C84.2142 104.65 75.835 108.448 66.6118 108.448C52.8675 108.448 41.1124 100.189 35.9282 88.3737C34.1197 84.2745 33.1552 79.6931 33.1552 74.9308V60.0411C33.1552 41.5345 48.1052 26.5845 66.6118 26.5845C85.0581 26.5845 100.068 41.5345 100.068 60.0411Z" fill="#F3EDE1" stroke="#333F72" stroke-width="0.904233"/>
<path d="M99.7067 52.3248V68.7819H95.0047V52.3248H99.7067Z" fill="#333F72"/>
<path d="M95.4266 69.0835C99.9478 63.9595 107.724 63.4772 112.848 67.9984C117.972 72.5196 118.454 80.3562 113.933 85.4802C109.412 90.6042 101.575 91.0865 96.4514 86.5653" fill="#F3EDE1"/>
<path d="M95.4266 69.0835C99.9478 63.9595 107.724 63.4772 112.848 67.9984C117.972 72.5196 118.454 80.3562 113.933 85.4802C109.412 90.6042 101.575 91.0865 96.4514 86.5653" stroke="#333F72" stroke-width="0.904233"/>
<path d="M102.419 80.1151L108.749 73.9663" stroke="#333F72" stroke-width="0.904233"/>
<path d="M90.6644 78.7285C90.6644 83.1893 87.0474 86.8063 82.5866 86.8063C78.1257 86.8063 74.5088 83.1893 74.5088 78.7285C74.5088 74.2676 78.1257 70.6506 82.5866 70.6506C87.0474 70.6506 90.6644 74.2676 90.6644 78.7285Z" fill="#F3CFBF"/>
<path d="M52.3852 78.7285C52.3852 83.1893 48.7683 86.8063 44.3074 86.8063C39.8465 86.8063 36.2296 83.1893 36.2296 78.7285C36.2296 74.2676 39.8465 70.6506 44.3074 70.6506C48.7683 70.6506 52.3852 74.2676 52.3852 78.7285Z" fill="#F3CFBF"/>
<path d="M80.4767 70.6506C80.4767 72.3385 79.1505 73.6647 77.5229 73.6647C75.835 73.6647 74.5088 72.3385 74.5088 70.6506C74.5088 69.023 75.835 67.6365 77.5229 67.6365C79.1505 67.6365 80.4767 69.023 80.4767 70.6506Z" fill="#333F72"/>
<path d="M51.481 70.6506C51.481 72.3385 50.1548 73.6647 48.5271 73.6647C46.8392 73.6647 45.513 72.3385 45.513 70.6506C45.513 69.023 46.8392 67.6365 48.5271 67.6365C50.1548 67.6365 51.481 69.023 51.481 70.6506Z" fill="#333F72"/>
<path d="M64.3813 84.3346H56.7255L66.6118 26.7651" fill="#F3EDE1"/>
<path d="M64.3813 84.3346H56.7255L66.6118 26.7651" stroke="#333F72" stroke-width="0.904233"/>
<path d="M58.4134 91.026C63.658 96.3308 68.6011 91.026 68.6011 91.026" stroke="#333F72" stroke-width="0.904233"/>
<path d="M58.8956 21.8824C58.8956 36.2899 71.1932 57.4489 108.086 57.4489C108.086 57.4489 107.001 21.8824 58.8956 21.8824Z" fill="#333F72"/>
<path d="M25.8008 162.159C23.2086 177.471 27.6092 187.056 40.389 187.056" stroke="#F3EDE1" stroke-width="1.20564"/>
<path d="M113.21 162.159C115.742 177.471 111.401 187.056 98.5614 187.056" stroke="#F3EDE1" stroke-width="1.20564"/>
<path d="M41.233 59.9206C41.233 59.9206 42.8004 56.1228 46.8393 55.2186C49.4917 54.5555 52.3852 55.8817 52.3852 59.9206H41.233Z" fill="#333F72"/>
<path d="M73.8456 59.9206C73.8456 55.8817 76.7392 54.5555 79.4519 55.2186C83.4305 56.1228 85.0581 59.9206 85.0581 59.9206H73.8456Z" fill="#333F72"/>
<path d="M46.2364 36.2899L39.0025 25.3788" stroke="#F3EDE1" stroke-width="1.20564"/>
<path d="M44.3074 39.6655L34.3608 31.2863" stroke="#F3EDE1" stroke-width="1.20564"/>
<path d="M39.7259 42.499L29.8999 36.7119" stroke="#F3EDE1" stroke-width="1.20564"/>
</svg>
